Coordinates
version=1
nRows=19
nColumns=33
inDegrees=yes

Units are S.I. units (second, meters, Newtons, ...)
Angles are in degrees.

endheader
time	ground_thorax_rot_x	ground_thorax_rot_y	ground_thorax_rot_z	ground_thorax_tx	ground_thorax_ty	ground_thorax_tz	clav_prot_r	clav_elev_r	scapula_abduction_r	scapula_elevation_r	scapula_upward_rot_r	scapula_winging_r	shoulder_elv_r	plane_of_elev_r	axial_rot_r	elbow_flexion_r	pro_sup_r	wrist_flex_r	wrist_dev_r	clav_prot_l	clav_elev_l	scapula_abduction_l	scapula_elevation_l	scapula_upward_rot_l	scapula_winging_l	shoulder_elv_l	plane_of_elev_l	axial_rot_l	elbow_flexion_l	pro_sup_l	wrist_flex_l	wrist_dev_l	
8.5100	-38.754880	-9.016075	14.893502	-231.171864	842.708555	4.584248	5.859253	-45.000000	37.720300	-45.000000	-32.980098	3137.611128	-1727.553911	33.801282	60.605017	1099.850676	90.792355	14.441468	1.185276	15.241066	37.517143	-37.907246	-45.000000	-44.999456	-1354.515290	2593.383069	23.807953	-41.586733	2182.571749	139.014384	-1.213241	-10.191398	
8.5200	-38.743784	-9.107702	14.932625	-229.131922	841.898275	4.532560	5.784906	-45.000000	37.803574	-45.000000	-32.504561	3137.727726	-1727.621048	33.776039	60.301937	1099.483656	86.934363	14.859360	1.351441	15.341497	37.556220	-38.061083	-45.000000	-44.999025	-1354.615906	2593.330539	23.851960	-41.549884	2182.640324	141.121773	-1.221130	-10.087313	
8.5300	-38.728976	-9.201537	14.977366	-226.986219	841.004522	4.484379	5.730193	-45.000000	37.888646	-45.000000	-32.017266	3137.845160	-1727.714824	33.748366	60.014671	1098.956151	81.548658	15.369281	1.659773	15.422604	37.583739	-38.210405	-45.000000	-44.998254	-1354.728040	2593.270137	23.891504	-41.571842	2182.701690	143.501809	-1.217823	-9.966921	
8.5400	-38.711542	-9.295647	15.028208	-224.734228	840.023421	4.439561	5.689759	-45.000000	37.979722	-45.000000	-31.498958	3137.962088	-1727.853996	33.687151	59.854715	1098.061872	72.369006	16.072784	2.316150	15.488127	37.602997	-38.354766	-45.000000	-44.996870	-1354.855200	2593.200845	23.903680	-41.760208	2182.754262	146.773182	-1.176330	-9.793727	
8.5500	-38.689633	-9.398012	15.094336	-222.378636	838.953679	4.398780	5.648984	-45.000000	38.068137	-45.000000	-30.985627	3138.085901	-1728.027886	33.598325	59.799055	1096.893800	60.361042	16.903452	3.263694	15.549916	37.622194	-38.498796	-45.000000	-44.994402	-1354.989703	2593.116739	23.896006	-42.076874	2182.795732	150.600493	-1.105142	-9.583949	
8.5600	-38.665393	-9.512489	15.176156	-219.924808	837.796083	4.363246	5.616824	-45.000000	38.155213	-45.000000	-30.492507	3138.216866	-1728.235177	33.487452	59.853669	1095.542922	46.422637	17.791526	4.443592	15.598919	37.637535	-38.636226	-45.000000	-44.989947	-1355.130441	2593.024605	23.879166	-42.474640	2182.822311	154.713679	-1.018653	-9.354170	
8.5700	-38.638595	-9.644902	15.273643	-217.380134	836.553433	4.334666	5.599398	-45.000000	38.237212	-45.000000	-30.057830	3138.357255	-1728.452732	33.390048	59.921048	1094.328584	33.907570	18.549280	5.576975	15.629621	37.647321	-38.766716	-45.000000	-44.982061	-1355.266612	2592.924706	23.889979	-42.793739	2182.834431	158.164353	-0.962110	-9.161288	
8.5800	-38.610734	-9.795590	15.384404	-214.751012	835.228671	4.314403	5.596630	-45.000000	38.321628	-45.000000	-29.657147	3138.504613	-1728.678292	33.300481	60.033510	1093.295429	23.197112	19.150446	6.619704	15.635845	37.651232	-38.879995	-45.000000	-44.967676	-1355.412307	2592.837196	23.920167	-43.015325	2182.833291	160.930265	-0.947607	-9.010972	
8.5900	-38.583474	-9.961217	15.506349	-212.041172	833.824272	4.303153	5.600684	-45.000000	38.399716	-45.000000	-29.304445	3138.661982	-1728.895310	33.241097	60.099800	1092.664710	16.679507	19.479475	7.353288	15.628893	37.656467	-38.985190	-45.000000	-44.942629	-1355.561558	2592.754873	23.989008	-43.040078	2182.816837	162.394039	-1.004164	-8.942706	
8.6000	-38.557129	-10.129611	15.629646	-209.249271	832.340465	4.300203	5.590691	-45.000000	38.476698	-45.000000	-28.949848	3138.829387	-1729.104721	33.192826	60.153886	1092.368100	13.584674	19.591817	7.822936	15.634898	37.674376	-39.086908	-45.000000	-44.895750	-1355.718252	2592.673830	24.080530	-42.908842	2182.791864	162.874945	-1.121350	-8.940592	
8.6100	-38.533978	-10.285339	15.745675	-206.370780	830.776344	4.304068	5.559049	-45.000000	38.548597	-45.000000	-28.575491	3139.004928	-1729.313133	33.149813	60.190369	1092.335185	13.258619	19.537762	8.069335	15.668575	37.711853	-39.196150	-44.999999	-44.817396	-1355.880523	2592.577995	24.188768	-42.666083	2182.761003	162.606897	-1.285948	-8.993219	
8.6200	-38.510000	-10.424650	15.858568	-203.399829	829.130384	4.313104	5.473553	-45.000000	38.616611	-45.000000	-28.137145	3139.190632	-1729.528228	33.071913	60.295151	1092.309690	12.947653	19.474776	8.323882	15.762003	37.782682	-39.314567	-44.999999	-44.700541	-1356.061128	2592.464359	24.269202	-42.442675	2182.732279	162.400700	-1.455800	-9.050507	
8.6300	-38.486615	-10.545899	15.970941	-200.332778	827.402394	4.326547	5.343966	-45.000000	38.673178	-45.000000	-27.662602	3139.386418	-1729.756708	32.967627	60.426981	1092.278572	12.650595	19.406816	8.590945	15.908180	37.884178	-39.446808	-44.999998	-44.543972	-1356.255257	2592.321228	24.325656	-42.249530	2182.699844	162.201004	-1.624198	-9.115774	
8.6400	-38.457751	-10.660129	16.089620	-197.168924	825.593471	4.344691	5.179742	-45.000000	38.723739	-45.000000	-27.171400	3139.591187	-1729.991748	32.843425	60.572371	1092.245697	12.370717	19.336290	8.871513	16.098195	38.006402	-39.583312	-44.999996	-44.360839	-1356.456509	2592.152476	24.367338	-42.068908	2182.669830	161.959978	-1.789472	-9.190856	
8.6500	-38.426278	-10.768839	16.213552	-193.911572	823.706650	4.369097	5.020294	-45.000000	38.772554	-45.000000	-26.692761	3139.797777	-1730.246887	32.715460	60.720804	1092.201270	12.112947	19.258942	9.154799	16.281569	38.130779	-39.712288	-44.999993	-44.158135	-1356.665286	2591.968913	24.407563	-41.912782	2182.636442	161.630132	-1.956171	-9.283625	
8.6600	-38.387507	-10.883806	16.351353	-190.566432	821.746066	4.402161	4.875773	-45.000000	38.822764	-45.000000	-26.244437	3140.004942	-1730.516616	32.588583	60.874518	1092.149263	11.882245	19.174428	9.438121	16.445716	38.246900	-39.824387	-44.999988	-43.954800	-1356.885549	2591.783767	24.447696	-41.761906	2182.600608	161.165225	-2.124691	-9.397951	
8.6700	-38.345862	-11.000510	16.498435	-187.140519	819.716608	4.446614	4.762768	-45.000000	38.873262	-45.000000	-25.836351	3140.210266	-1730.811444	32.469605	61.036125	1092.080318	11.682068	19.078616	9.715382	16.570875	38.347247	-39.920871	-44.999978	-43.757148	-1357.119100	2591.602483	24.493851	-41.621171	2182.552116	160.507981	-2.295653	-9.542002	
8.6800	-38.301015	-11.114568	16.654186	-183.640466	817.623193	4.504919	4.654056	-45.000000	38.919075	-45.000000	-25.449128	3140.415928	-1731.120133	32.348373	61.216620	1091.999727	11.514394	18.972437	9.994581	16.699662	38.436317	-40.016414	-44.999961	-43.584820	-1357.373546	2591.431616	24.541604	-41.434851	2182.489666	159.582120	-2.464142	-9.719825	
8.6900	-38.254686	-11.224934	16.817350	-180.072622	815.471094	4.579056	4.549024	-45.000000	38.961748	-45.000000	-25.082740	3140.621993	-1731.443235	32.222049	61.418013	1091.905924	11.377701	18.855963	10.273714	16.830791	38.517886	-40.112835	-44.999930	-43.434689	-1357.643841	2591.264921	24.596924	-41.197965	2182.401005	158.268908	-2.619145	-9.940671	
